<svg xmlns="http://www.w3.org/2000/svg" viewBox="0 0 324.07 808.36"><g id="Calque_2" data-name="Calque 2"><g id="Calque_1-2" data-name="Calque 1"><g id="Calque_2-2" data-name="Calque 2"><g id="Calque_1-2-2" data-name="Calque 1-2"><path d="M323.47,127.29A18,18,0,0,0,307,111.14a115.36,115.36,0,0,0-74.16,18V126a156.92,156.92,0,0,0-57.19-122,18,18,0,0,0-22.82,0A157,157,0,0,0,95.07,126.3v6.22a114.78,114.78,0,0,0-78.3-21A18,18,0,0,0,.53,127.74,115.21,115.21,0,0,0,75.58,246.91a127.52,127.52,0,0,0-41.49,94c0,38,20.29,159.67,42.85,283.8v.72a17.86,17.86,0,0,0,1.44,7c5.14,28.42,10.37,56.84,15.42,84.26l5.69,32c9,49.89,29.59,59.63,62.51,59.63s54.76-9.65,62.79-59.63c1.44-9.65,6.13-35,11.9-67.11,25.89-141.81,53.5-296.79,53.5-340.54a127.44,127.44,0,0,0-41.41-94,115.11,115.11,0,0,0,74.69-119.62ZM164.17,42.68a121.25,121.25,0,0,1,0,166.34h0a121.4,121.4,0,0,1,0-166.43ZM36.79,147.14a78.15,78.15,0,0,1,47.72,22.73,79.33,79.33,0,0,1,22.83,47.81A79.21,79.21,0,0,1,36.79,147.14ZM254.1,340.9c0,44.11-34.37,232.74-52.86,333.77-6.13,33.65-10.64,58-12.18,68-4.6,29.5-9,29.5-27.06,29.5s-21.74,0-27.06-29.86c-1-6-3.07-17.23-5.95-32.48-3.16-17.32-7.49-40.5-12.27-66.75h44.2a18,18,0,1,0,0-36.08H110.4c-2.61-14.89-5.41-30.31-8.12-45.92H161.1a18,18,0,0,0,0-36.08H96c-2.8-16.24-5.5-32.3-8-48H161.1a18,18,0,0,0,0-36.09H82.17a911,911,0,0,1-12-100,92,92,0,0,1,183.93,0Zm10.65-146a79,79,0,0,1-48,22.82,79.31,79.31,0,0,1,22.82-47.81,78.2,78.2,0,0,1,47.72-22.73A78.68,78.68,0,0,1,264.75,194.86Z"/></g></g></g></g></svg>