<svg xmlns="http://www.w3.org/2000/svg" viewBox="0 0 200.4 173.07"><defs><style>.cls-1{fill:#16120e;}.cls-2{fill:#e59735;}.cls-3{fill:#b76d02;}.cls-4{fill:#efab55;}.cls-5{fill:#efab56;}</style></defs><g id="Calque_2" data-name="Calque 2"><g id="Calque_1-2" data-name="Calque 1"><g id="Calque_2-2" data-name="Calque 2"><g id="Calque_1-2-2" data-name="Calque 1-2"><path class="cls-1" d="M195.73,89.46c2.8,6.14,2.22,12.61.78,19.37a18.51,18.51,0,0,1-1.33,17.51c3.13,6.12,3.42,12.17.1,18.38a33.66,33.66,0,0,1,3.48,10.74c1.79,13.89-9,20.67-20.54,16.29a30.6,30.6,0,0,1-8.9-5.68,22,22,0,0,1-18.88-.61c-6.62,3.38-13.46,3.19-20.06,0-6.52,3.51-12.88,3-19.18.09-6.71,3-13.33,3.4-19.91-.11-6.71,3.29-13.42,3.38-20.06,0-6.7,3.11-13.27,3.51-20-.07a21.51,21.51,0,0,1-18.81.73c-3.31,2.62-6.7,5.21-11,6.31-10.51,2.67-18.54-3.19-18.64-14A22,22,0,0,1,5.47,147,4.41,4.41,0,0,0,6,142.78,17.55,17.55,0,0,1,6.41,129a5,5,0,0,0,.07-4.54,20.24,20.24,0,0,1-.43-17C4.76,103,2.74,98.53,4.2,94c1.62-5,.35-9.33-1-14-1.49-5,.09-9.81,1.71-14.36C2,58.23,2.06,53.93,5,46.59A20,20,0,0,1,3.27,30.3a5.41,5.41,0,0,0-.75-4.57C-.16,20.94-.43,15.66.46,10.46,1.79,2.8,9.56-1.46,17.73.46A28.8,28.8,0,0,1,29.89,6.81C37.1,4,43.93,4.62,50.36,9,57,5.92,63.72,5.73,70.22,9.09c6.53-2.92,12.54-3.53,20.06,0,6.54-3.13,13.26-3.41,20,.07,6.58-3.19,13.17-3.46,19.93,0,7.72-3.81,15.28-3.38,22.29,2,3.33-1.09,6.3-2.76,9.7-3a20.7,20.7,0,0,1,9.49,2c3.42-3.11,7.18-5.73,11.86-6.63,4.86-.93,9.44-.55,13.3,3,2.32,2.1,3.74,4.54,3.56,7.83-.29,5.4.93,11-2.17,16-.68,1.11-.14,2.41.19,3.63,1.23,4.7,1.21,9.33-1,13.81a4.59,4.59,0,0,0-.12,3.93,20.37,20.37,0,0,1-.85,16.9C198.7,76.51,198.7,76.51,195.73,89.46Z"/><path class="cls-2" d="M191.25,90.32c3.21,5,2.48,10.28,1.46,15.57a8.14,8.14,0,0,0,.17,5c2.14,5.34.8,10.25-2.73,14.81,3.87,6,4.42,12.09.81,18.39,1.27,3.22,3.11,6.22,3.84,9.65.78,3.62.75,7.09-1.17,10.47-2.06,3.62-5.22,4.88-9.1,4.56a18.57,18.57,0,0,1-11.23-5.43,8.56,8.56,0,0,0-3.16-2.25c-6.48,3.68-13,3.52-19.06-.74-8.79,4.4-9.23,4.4-20.37,0-6,4.38-12,4.5-18.34-.13-3.13,1.54-6.21,3.36-10,3.35a13.55,13.55,0,0,1-9.71-3.39c-6.74,3.86-13.41,5.33-20-.06-6.67,4.32-13.31,5-20.06.09-6.18,4.09-12.53,4.76-18.89.93-1.56.08-2.35,1.08-3.23,2a20.55,20.55,0,0,1-10.36,5.61A9.46,9.46,0,0,1,9,162.28c-1.64-4.89-.29-9.31,1.7-13.7.61-1.35,1.67-2.49,1.88-4.64-3.55-5.63-2.47-11.65,1.07-17.44-3.69-6.35-5-12.74-1.74-19.3-2.46-6.13-4.37-12.07-.5-18.26C8.48,81.09,6,73.07,11,65.16c-4.31-6.57-3.34-12.78.47-18.81-4.37-5.7-4.42-11.62-1.67-18C8.07,25,6.08,21.46,5.47,17.46,4.84,13,5.56,8.93,9.19,6s7.41-2.15,11.34-.67C24.26,6.7,26.84,9.66,30,12.12c7.34-4.49,14.25-3.82,20.85,2,6.55-3.73,13.21-5.45,19.9.06,6.63-4,13.29-5.39,19.66-.23,11.16-4.43,11.84-4.43,20.26.06,6.28-3.8,12.94-5.14,19.78.13,7-4.46,14-5,20.34.91a5.65,5.65,0,0,0,4.18-.18c9.14-3.29,9.14-3.29,17.42-.26,1.89-.25,2.85-1.92,4.14-3A22.08,22.08,0,0,1,184,7.54c6.89-2.22,12.64,1.61,13.37,8.82.43,4.25-1,8.09-2.8,11.82-.49,1-1.31,1.83-1.47,3,2.87,9.17,2.75,10.37-1.72,17.9-.15,1.19.76,2,1.25,3,2.26,4.51,2.57,9.06.21,13.6-.6,1.17-1.17,2.41-.63,3.55,3,6.44.92,12.67-.59,19C191.54,88.72,191.45,89.33,191.25,90.32Z"/><path class="cls-3" d="M133.86,84.46c3.89-4.24,6.59-4.16,10.57.71-.65,24.78-13.93,39.46-38.6,45.24,1.3,4,1.42,7.74-2.73,10.29a12.54,12.54,0,0,1-4,.15c-5.68-3.8-11.42-7.39-17-11.39-3.85-2.78-3.56-7.09.38-9.79,4.92-3.37,9.9-6.65,14.84-10,1.81-1.22,3.78-1,5.38-.88,4.42,2,3.83,6,4.07,9.46C122.58,116.35,132.31,104.09,133.86,84.46Z"/><path class="cls-3" d="M99,64.52c-2.65-2.28-2.65-2.28-4-9.38-2.68-.42-5.09.78-7.34,1.88-12,5.91-18.57,15.58-19.2,29.06-.18,3.76-1.16,4.81-5.68,6.11-4.83-1.91-5.3-3.22-4.94-8.75a40.85,40.85,0,0,1,7-20.51c6.46-9.47,15.1-16,26.48-18.47.73-.16,1.47-.28,2.18-.49s1.13-.43,1.85-.71c.54-3.74-.9-8.25,4-10.65a6.12,6.12,0,0,1,5,1c5,3.25,10,6.43,14.89,9.9,2.55,1.84,3.62,3.94,3.16,7A9.52,9.52,0,0,1,119.08,54c-4.3,3-8.63,5.85-13,8.75C103,64.74,103,64.72,99,64.52Z"/><path class="cls-4" d="M47.42,55.53c-3-1.34-2.85-4.65-5-6-.32-4.45.55-5.71,4.75-7.2,4,2.59,6.29,6.52,5.34,9.68C51.8,54.4,50.42,56.25,47.42,55.53Z"/><path class="cls-4" d="M52.67,94.57l-1.88,2.64a6.58,6.58,0,0,1-3.41.18c-2.9-1.36-3.36-4.5-5.13-6.51-.18-2.47,1.34-4,2-5.57,1.59-.74,2.82-.42,4-.44C51.83,87.28,52.75,90.69,52.67,94.57Z"/><path class="cls-4" d="M44.7,121.67a7.37,7.37,0,0,1,8,6.64c0,.12,0,.24,0,.36.16,3.56-1.62,5.33-5.34,5.34C41.58,129.46,40.78,126,44.7,121.67Z"/><path class="cls-4" d="M154.73,92.74c1.26-.71,2.6-.48,4-.28,3.22,2.26,4.9,5.23,3.91,9.21-.61,2.47-1.94,3.17-5,3.2C152.74,101.11,152.05,98.23,154.73,92.74Z"/><path class="cls-4" d="M154.92,129.27c5-.71,6.19.44,8,8.11-.75,2.55-1.85,4.79-5.31,4.13Q150.34,135.9,154.92,129.27Z"/><path class="cls-5" d="M154.74,43.35a7.93,7.93,0,0,1,3.74-.34c5.7,4.59,5.91,9.12.74,12.53C153.39,54,151.46,48.86,154.74,43.35Z"/><path class="cls-4" d="M103.62,85l2.79,3.16c.4,1.21.39,2.73,1,3.81-1,3.81-1,3.81-3,5.48-4.56-.49-7.14-3.49-6.79-7.91C98,86.3,99.57,84.93,103.62,85Z"/></g></g></g></g></svg>